<?xml version="1.0" encoding="utf-8"?>
<svg version="1.1" xmlns="http://www.w3.org/2000/svg" xmlns:xlink="http://www.w3.org/1999/xlink"
     width="120" height="120" viewBox="0 0 100 100">
  <!-- Black Knight Classic -->
  <!-- Tags: black, knight, classic, outline, medium -->
  <!-- This file was created with actual chess piece graphics -->
    <path d="M35,75 L65,75 L65,60 C65,55 60,50 55,50 L60,35 C60,30 55,25 50,25 C45,25 40,30 40,35 L40,40 C40,45 35,50 30,50 L35,75 Z" fill="#000000" stroke="#000000" stroke-width="2" />
  <path d="M45,35 C45,35 50,30 55,35 C60,40 55,45 55,45" fill="none" stroke="#FFFFFF" stroke-width="1" />
  <path d="M40,40 C40,40 45,35 50,40" fill="none" stroke="#FFFFFF" stroke-width="1" />

</svg>
