<?xml version="1.0" encoding="utf-8"?>
<!DOCTYPE svg PUBLIC "-//W3C//DTD SVG 1.1//EN" "http://www.w3.org/Graphics/SVG/1.1/DTD/svg11.dtd">
<svg xmlns="http://www.w3.org/2000/svg" version="1.1" id="Ebene_1" x="0px" y="0px" enable-background="new 0 0 600 720" xml:space="preserve" viewBox="348.3256 348.0023 143.99279999999993 143.99640000000005" width="100%" height="100%" data-theme="white" data-piece="g3758_57_"><g id="g3758_57_" transform="translate(-0.31299646,0)" fill="#222222" stroke="#AAAAAA">
	<g id="path3760_57_" fill="#222222" stroke="#AAAAAA">
		<path d="M440.416,445.851c0.317-1.178,0.472-2.349,0.472-3.563c0-4.389-2.1-8.514-5.644-11.101    c5.441-1.951,9.077-7.115,9.077-12.894c0-11.917-7.623-22.486-18.921-26.26c0.445-0.49,0.801-1.009,1.081-1.603    c2.406-4.942-1.691-10.569-7.13-9.797c-5.441,0.784-7.805,7.329-4.118,11.4c-11.289,3.773-18.918,14.343-18.918,26.245    c0,5.793,3.633,10.957,9.081,12.908c-3.551,2.587-5.657,6.712-5.657,11.101c0,1.215,0.159,2.386,0.473,3.563    c2.612,1.382,5.287,2.472,8.108,3.292c-5.877,0-11.484,2.491-15.427,6.862c0,2.285,0,4.567,0,6.85c18.279,0,36.571,0,54.857,0    c0-2.282,0-4.564,0-6.85c-3.946-4.371-9.55-6.862-15.431-6.862C435.149,448.322,437.816,447.232,440.416,445.851L440.416,445.851z    " fill="#222222" stroke="#AAAAAA" />
		<path d="M447.75,463.729h-54.857c-0.482,0-0.874-0.386-0.874-0.874v-6.85c0-0.227,0.077-0.435,0.212-0.595    c3.184-3.504,7.399-5.859,11.977-6.751c-1.498-0.591-2.949-1.269-4.397-2.032c-0.22-0.118-0.382-0.32-0.443-0.547    c-0.337-1.252-0.499-2.497-0.499-3.793c0-4.146,1.789-8.103,4.838-10.856c-4.996-2.403-8.267-7.515-8.267-13.152    c0-11.889,7.331-22.451,18.369-26.66c-1.319-2.022-1.604-4.487-0.769-6.819c0.992-2.73,3.301-4.611,6.184-5.023    c3.14-0.446,6.028,0.955,7.656,3.565c1.418,2.258,1.565,5.057,0.398,7.473c-0.143,0.28-0.287,0.537-0.453,0.804    c11.038,4.209,18.374,14.771,18.374,26.675c0,5.623-3.274,10.734-8.268,13.141c3.052,2.751,4.834,6.707,4.834,10.854    c0,1.296-0.161,2.541-0.499,3.793c-0.061,0.229-0.223,0.429-0.433,0.547c-1.452,0.764-2.902,1.441-4.401,2.032    c4.577,0.892,8.803,3.247,11.966,6.751c0.146,0.16,0.227,0.368,0.227,0.595v6.85C448.625,463.343,448.233,463.729,447.75,463.729    L447.75,463.729z M393.771,461.98h53.104v-5.639c-3.76-4.029-9.047-6.314-14.556-6.314c-0.438,0-0.803-0.325-0.87-0.76    c-0.062-0.436,0.209-0.845,0.628-0.966c2.653-0.773,5.145-1.772,7.585-3.042c0.232-0.979,0.354-1.951,0.354-2.973    c0-4.093-1.985-7.984-5.294-10.377c-0.256-0.199-0.398-0.521-0.347-0.841c0.04-0.324,0.267-0.585,0.567-0.703    c5.087-1.829,8.496-6.68,8.496-12.073c0-11.555-7.359-21.771-18.316-25.429c-0.283-0.099-0.493-0.321-0.574-0.598    c-0.074-0.301,0-0.602,0.199-0.824c0.389-0.425,0.699-0.881,0.949-1.398c0.918-1.894,0.803-4.003-0.305-5.778    c-1.266-2.016-3.497-3.109-5.913-2.762c-2.235,0.325-4.021,1.77-4.784,3.893c-0.766,2.116-0.32,4.381,1.192,6.045    c0.195,0.219,0.272,0.523,0.195,0.817c-0.073,0.284-0.283,0.506-0.57,0.605c-10.954,3.658-18.32,13.874-18.32,25.414    c0,5.408,3.416,10.259,8.497,12.088c0.308,0.118,0.526,0.379,0.577,0.7c0.048,0.323-0.088,0.645-0.351,0.844    c-3.312,2.393-5.293,6.278-5.293,10.377c0,1.021,0.114,1.994,0.348,2.973c2.447,1.27,4.941,2.269,7.592,3.042    c0.425,0.121,0.682,0.53,0.621,0.966c-0.062,0.435-0.433,0.76-0.864,0.76c-5.516,0-10.795,2.285-14.549,6.314V461.98    L393.771,461.98z" fill="#222222" stroke="#AAAAAA" />
	</g>
	<g id="polyline3762_57_" fill="#222222" stroke="#AAAAAA">
		<path fill="#222222" d="M427.175,412.301h-13.714c-0.483,0-0.875-0.382-0.875-0.868c0-0.485,0.392-0.884,0.875-0.884h13.714    c0.486,0,0.882,0.398,0.882,0.884C428.057,411.919,427.662,412.301,427.175,412.301L427.175,412.301z" stroke="#AAAAAA" />
	</g>
	<g id="polyline3764_57_" fill="#222222" stroke="#AAAAAA">
		<path fill="#222222" d="M420.309,419.163c-0.472,0-0.863-0.398-0.863-0.885v-13.712c0-0.479,0.392-0.874,0.863-0.874    c0.497,0,0.878,0.395,0.878,0.874v13.712C421.187,418.765,420.806,419.163,420.309,419.163L420.309,419.163z" stroke="#AAAAAA" />
	</g>
	<g id="line3766_57_" fill="#222222" stroke="#AAAAAA">
		<path fill="#222222" d="M428.897,450.027h-17.148c-0.484,0-0.877-0.402-0.877-0.885c0-0.483,0.393-0.878,0.877-0.878h17.148    c0.482,0,0.878,0.395,0.878,0.878C429.775,449.625,429.379,450.027,428.897,450.027L428.897,450.027z" stroke="#AAAAAA" />
	</g>
	<g id="rect3768_57_" fill="#222222" stroke="#AAAAAA">
		<rect x="360.325" y="360.002" fill="none" width="119.994" height="119.997" />
	</g>
</g></svg>