<?xml version="1.0" encoding="utf-8"?>
<!DOCTYPE svg PUBLIC "-//W3C//DTD SVG 1.1//EN" "http://www.w3.org/Graphics/SVG/1.1/DTD/svg11.dtd">
<svg xmlns="http://www.w3.org/2000/svg" version="1.1" id="Ebene_1" x="0px" y="0px" enable-background="new 0 0 600 720" xml:space="preserve" viewBox="-11.684 -11.999400000000001 144.0 143.99280000000002" width="100%" height="100%" data-theme="white" data-piece="g3792_38_"><g id="g3792_38_" transform="translate(-0.31299646,0)" fill="#222222" stroke="#AAAAAA">
	<g id="path3794_38_" fill="#222222" stroke="#AAAAAA">
		<path d="M60.312,72.576l9.242-20.534c0.703-3.419,1.05-6.833,1.05-10.323    c0-5.678-4.601-10.282-10.292-10.282c-5.675,0-10.283,4.604-10.283,10.282c0,3.491,0.354,6.904,1.053,10.323L60.312,72.576z" fill="#222222" stroke="#AAAAAA" />
		<path d="M60.312,73.444c-0.341,0-0.649-0.192-0.793-0.503L50.279,52.4c-0.024-0.05-0.041-0.114-0.068-0.179    c-0.712-3.5-1.057-6.937-1.057-10.502c0-6.157,5.003-11.156,11.157-11.156c6.163,0,11.163,5,11.163,11.156    c0,3.565-0.341,7.008-1.063,10.502c-0.014,0.064-0.03,0.128-0.054,0.179l-9.243,20.541C60.973,73.251,60.659,73.444,60.312,73.444    L60.312,73.444z M51.92,51.779l8.392,18.657l8.405-18.657c0.681-3.355,1.006-6.643,1.006-10.06c0-5.191-4.216-9.414-9.411-9.414    c-5.179,0-9.401,4.223-9.401,9.414C50.911,45.136,51.238,48.424,51.92,51.779L51.92,51.779z" fill="#222222" stroke="#AAAAAA" />
	</g>
	<g id="line3796_38_" fill="#222222" stroke="#AAAAAA">
		<path d="M60.312,38.581c-0.483,0-0.878-0.385-0.878-0.872V13.715c0-0.485,0.395-0.88,0.878-0.88c0.485,0,0.88,0.395,0.88,0.88    v23.994C61.192,38.195,60.797,38.581,60.312,38.581L60.312,38.581z" fill="#222222" stroke="#AAAAAA" />
	</g>
	<g id="line3798_38_" fill="#222222" stroke="#AAAAAA">
		<path d="M67.171,21.442H53.456c-0.476,0-0.874-0.388-0.874-0.878c0-0.482,0.398-0.867,0.874-0.867h13.715    c0.486,0,0.885,0.385,0.885,0.867C68.056,21.054,67.657,21.442,67.171,21.442L67.171,21.442z" fill="#222222" stroke="#AAAAAA" />
	</g>
	<g id="path3800_38_" fill="#222222" stroke="#AAAAAA">
		<path d="M29.458,85.468c0,5.792,0,11.589,0,17.385c20.571,0,41.146,0,61.713,0    c0-5.796,0-11.592,0-17.385c8.493-4.905,13.719-13.962,13.719-23.761c0-9.459-7.676-17.142-17.145-17.142    c-15.154,0-27.434,12.283-27.434,27.43c0-15.146-12.281-27.43-27.424-27.43c-9.472,0-17.139,7.683-17.139,17.142    C15.75,71.506,20.965,80.563,29.458,85.468L29.458,85.468z" fill="#222222" stroke="#AAAAAA" />
		<path d="M91.171,103.729H29.458c-0.486,0-0.877-0.397-0.877-0.877V85.968c-8.466-5.104-13.712-14.347-13.712-24.261    c0-9.931,8.082-18.016,18.02-18.016c13.188,0,24.304,9.081,27.424,21.293c3.129-12.213,14.234-21.293,27.434-21.293    c9.935,0,18.022,8.085,18.022,18.016c0,9.914-5.245,19.156-13.721,24.261v16.885C92.046,103.332,91.665,103.729,91.171,103.729    L91.171,103.729z M30.333,101.975h59.968V85.468c0-0.311,0.162-0.604,0.432-0.77c8.189-4.716,13.276-13.533,13.276-22.991    c0-8.963-7.295-16.264-16.264-16.264c-14.641,0-26.553,11.909-26.553,26.552c0,0.486-0.395,0.881-0.88,0.881    c-0.483,0-0.878-0.395-0.878-0.881c0-14.643-11.909-26.552-26.546-26.552c-8.973,0-16.271,7.301-16.271,16.264    c0,9.458,5.087,18.269,13.273,22.991c0.276,0.166,0.442,0.459,0.442,0.77V101.975L30.333,101.975z" fill="#222222" stroke="#AAAAAA" />
	</g>
	<g id="line3802_38_" fill="#222222" stroke="#AAAAAA">
		<path fill="#222222" d="M84.316,90.018H36.311c-0.479,0-0.871-0.398-0.871-0.881c0-0.485,0.392-0.874,0.871-0.874h48.005    c0.483,0,0.878,0.389,0.878,0.874C85.194,89.62,84.799,90.018,84.316,90.018L84.316,90.018z" stroke="#AAAAAA" />
	</g>
	<g id="line3804_38_" fill="#222222" stroke="#AAAAAA">
		<path fill="#222222" d="M84.316,96.867H36.311c-0.479,0-0.871-0.388-0.871-0.871s0.392-0.878,0.871-0.878h48.005    c0.483,0,0.878,0.395,0.878,0.878S84.799,96.867,84.316,96.867L84.316,96.867z" stroke="#AAAAAA" />
	</g>
	<g id="rect3806_38_" fill="#222222" stroke="#AAAAAA">
		<rect x="0.316" fill="none" width="120" height="119.994" />
	</g>
	<g id="g3808_38_" fill="#222222" stroke="#AAAAAA">
		<g id="path3810_38_" fill="#222222" stroke="#AAAAAA">
			<path fill="#222222" d="M71.229,46.763c-5.461,3.898-9.304,9.557-10.927,16     c-1.657-6.41-5.546-12.088-10.899-15.967c0.081,0.82,0.179,1.63,0.303,2.454c6.016,4.966,9.729,12.463,9.729,20.517     c0,0.486,0.395,0.874,0.878,0.874c0.485,0,0.88-0.388,0.88-0.874c0-8.145,3.629-15.595,9.746-20.561     C71.053,48.39,71.154,47.579,71.229,46.763L71.229,46.763z" stroke="#AAAAAA" />
		</g>
	</g>
</g></svg>