<?xml version="1.0" encoding="utf-8"?>
<!DOCTYPE svg PUBLIC "-//W3C//DTD SVG 1.1//EN" "http://www.w3.org/Graphics/SVG/1.1/DTD/svg11.dtd">
<svg xmlns="http://www.w3.org/2000/svg" version="1.1" id="Ebene_1" x="0px" y="0px" enable-background="new 0 0 600 720" xml:space="preserve" viewBox="-11.596700000000002 348.0023 144.0084 143.99640000000005" width="100%" height="100%" data-theme="white" data-piece="g3746_57_"><g id="g3746_57_" transform="translate(-0.31299646,0)" fill="#222222" stroke="#AAAAAA">
	<g id="path3748_57_" fill="#222222" stroke="#AAAAAA">
		<path d="M43.254,434.935c5.212-3.271,10.42-6.528,15.632-9.797    c-1.363,6.6-4.172,11.431-9.215,15.89c-6.258,5.539-9.837,13.489-9.837,21.827c19.43,0,38.85,0,58.284,0    c0-9.205-0.642-18.306-1.928-27.421c-3.986-28.132-26.873-49.784-55.181-52.187c-5.901,16.227-11.805,32.44-17.695,48.67    c-2.187,6.001,1.58,12.533,7.878,13.641c6.292,1.107,12.065-3.737,12.065-10.124C43.265,435.258,43.258,435.1,43.254,434.935z" fill="#222222" stroke="#AAAAAA" />
		<path d="M98.119,463.735H39.835c-0.486,0-0.874-0.393-0.874-0.881c0-8.584,3.689-16.787,10.13-22.476    c4.378-3.885,6.974-7.97,8.445-13.36l-13.408,8.385c0,0.018,0,0.02,0,0.034c0,3.001-1.165,5.815-3.301,7.929    c-2.106,2.08-4.888,3.23-7.835,3.23l0,0c-0.652,0-1.3-0.064-1.958-0.179c-3.258-0.567-6.066-2.542-7.72-5.401    c-1.661-2.865-1.961-6.288-0.83-9.404l17.695-48.664c0.135-0.374,0.51-0.618,0.898-0.569c28.902,2.447,51.917,24.213,55.982,52.93    c1.303,9.212,1.934,18.228,1.934,27.545C98.993,463.343,98.604,463.735,98.119,463.735L98.119,463.735z M40.723,461.98h56.511    c-0.027-8.929-0.661-17.571-1.907-26.429c-3.918-27.681-25.961-48.717-53.723-51.374l-17.473,48.028    c-0.958,2.623-0.695,5.517,0.695,7.927c1.397,2.416,3.767,4.067,6.521,4.56c0.547,0.099,1.098,0.149,1.645,0.149l0,0    c2.484,0,4.83-0.966,6.603-2.718c1.806-1.785,2.785-4.159,2.785-6.69c0-0.162,0-0.311-0.003-0.463    c-0.021-0.316,0.132-0.617,0.408-0.779l15.636-9.79c0.301-0.185,0.682-0.182,0.966,0.024c0.291,0.196,0.432,0.55,0.364,0.901    c-1.404,6.744-4.341,11.794-9.505,16.362C44.405,446.857,40.959,454.209,40.723,461.98L40.723,461.98z" fill="#222222" stroke="#AAAAAA" />
	</g>
	<g id="circle3750_57_" fill="#222222" stroke="#AAAAAA">
		<path fill="#222222" d="M44.271,408.689c-2.383,0-4.307-1.928-4.307-4.301s1.924-4.305,4.307-4.305    c2.363,0,4.301,1.932,4.301,4.305S46.634,408.689,44.271,408.689L44.271,408.689z M44.271,401.836    c-1.411,0-2.552,1.145-2.552,2.553c0,1.4,1.141,2.555,2.552,2.555c1.405,0,2.545-1.154,2.545-2.555    C46.816,402.98,45.675,401.836,44.271,401.836L44.271,401.836z" stroke="#AAAAAA" />
	</g>
	<g id="line3752_57_" fill="#222222" stroke="#AAAAAA">
		<path fill="#222222" d="M84.4,456.875H46.698c-0.497,0-0.888-0.391-0.888-0.87c0-0.486,0.391-0.878,0.888-0.878H84.4    c0.486,0,0.877,0.392,0.877,0.878C85.278,456.484,84.886,456.875,84.4,456.875L84.4,456.875z" stroke="#AAAAAA" />
	</g>
	<g id="path3754_57_" fill="#222222" stroke="#AAAAAA">
		<path fill="#222222" d="M91.138,456.875c-0.473,0-0.857-0.367-0.868-0.844c-0.223-5.947-0.658-13.782-2.072-21.583    c-1.323-7.299-3.845-13.577-7.93-19.774c-7.949-12.059-20.652-20.453-34.856-23.05c-0.473-0.088-0.793-0.539-0.706-1.02    c0.084-0.472,0.543-0.803,1.02-0.702c14.667,2.68,27.801,11.355,36.007,23.802c4.22,6.396,6.826,12.892,8.196,20.439    c1.432,7.905,1.874,15.808,2.086,21.83c0.017,0.479-0.361,0.888-0.844,0.9C91.158,456.875,91.145,456.875,91.138,456.875    L91.138,456.875z" stroke="#AAAAAA" />
	</g>
	<g id="rect3756_57_" fill="#222222" stroke="#AAAAAA">
		<rect x="0.404" y="360.002" fill="none" width="120.007" height="119.997" />
	</g>
</g></svg>