<?xml version="1.0" encoding="utf-8"?>
<!DOCTYPE svg PUBLIC "-//W3C//DTD SVG 1.1//EN" "http://www.w3.org/Graphics/SVG/1.1/DTD/svg11.dtd">
<svg xmlns="http://www.w3.org/2000/svg" version="1.1" id="Ebene_1" x="0px" y="0px" enable-background="new 0 0 600 720" xml:space="preserve" viewBox="228.3206 467.99830000000003 144.0048 144.0084000000001" width="100%" height="100%" data-theme="white" data-piece="g3820_306_"><g id="g3820_306_" transform="translate(-0.31299646,0)" fill="#222222" stroke="#AAAAAA">
	<g id="g4034_306_" fill="#222222" stroke="#AAAAAA">
		<g id="path3822_306_" fill="#222222" stroke="#AAAAAA">
			<path d="M307.938,525.938c4.027-5.465,1.165-13.262-5.438-14.822     c-6.603-1.566-12.659,4.133-11.504,10.815c0.263,1.513,0.803,2.775,1.715,4.007c-5.138,2.943-8.136,8.578-7.68,14.482     c0.314,4.108,2.265,7.912,5.415,10.551c-10.931,6.924-17.554,18.959-17.554,31.887c18.286,0,36.568,0,54.858,0     c0-12.928-6.624-24.963-17.554-31.887C318.359,544.108,317.191,531.234,307.938,525.938L307.938,525.938z" fill="#222222" stroke="#AAAAAA" />
			<path d="M327.75,583.739h-54.858c-0.482,0-0.874-0.402-0.874-0.882c0-12.915,6.333-24.8,17-31.994     c-2.802-2.734-4.561-6.464-4.854-10.373c-0.459-5.897,2.39-11.622,7.308-14.826c-0.681-1.097-1.11-2.258-1.333-3.588     c-0.527-3.011,0.3-6.072,2.262-8.402c2.498-2.977,6.495-4.324,10.299-3.416c3.392,0.797,6.133,3.238,7.328,6.502     c1.087,2.967,0.756,6.229-0.857,8.904c4.206,2.718,6.846,7.082,7.298,12.122c0.449,4.962-1.303,9.665-4.834,13.077     c10.664,7.203,16.99,19.079,16.99,31.994C328.625,583.337,328.233,583.739,327.75,583.739L327.75,583.739z M273.78,581.983     h53.086c-0.29-12.364-6.65-23.626-17.135-30.266c-0.236-0.149-0.392-0.405-0.412-0.683c-0.017-0.276,0.104-0.546,0.317-0.729     c3.659-3.082,5.516-7.586,5.084-12.352c-0.426-4.78-3.065-8.882-7.225-11.255c-0.216-0.128-0.371-0.334-0.418-0.583     c-0.051-0.243,0.007-0.5,0.151-0.695c1.712-2.337,2.144-5.344,1.151-8.064c-0.999-2.715-3.268-4.73-6.083-5.395     c-3.166-0.739-6.467,0.364-8.554,2.838c-1.654,1.962-2.322,4.443-1.877,6.979c0.237,1.374,0.726,2.521,1.546,3.643     c0.152,0.195,0.203,0.452,0.155,0.695c-0.047,0.249-0.203,0.455-0.425,0.583c-4.821,2.752-7.663,8.108-7.238,13.655     c0.293,3.841,2.158,7.463,5.104,9.951c0.223,0.183,0.331,0.452,0.314,0.729c-0.014,0.277-0.172,0.533-0.406,0.683     C280.423,558.357,274.063,569.621,273.78,581.983L273.78,581.983z" fill="#222222" stroke="#AAAAAA" />
		</g>
		<g id="line3824_306_" fill="#222222" stroke="#AAAAAA">
			<path fill="#222222" d="M307.179,551.859h-13.716c-0.483,0-0.881-0.398-0.881-0.889c0-0.476,0.398-0.87,0.881-0.87h13.716     c0.479,0,0.878,0.395,0.878,0.87C308.057,551.461,307.659,551.859,307.179,551.859L307.179,551.859z" stroke="#AAAAAA" />
		</g>
		<g id="rect3826_306_" fill="#222222" stroke="#AAAAAA">
			<rect x="240.321" y="479.999" fill="none" width="120.004" height="120.007" />
		</g>
	</g>
</g></svg>