<?xml version="1.0" encoding="utf-8"?>
<!DOCTYPE svg PUBLIC "-//W3C//DTD SVG 1.1//EN" "http://www.w3.org/Graphics/SVG/1.1/DTD/svg11.dtd">
<svg xmlns="http://www.w3.org/2000/svg" version="1.1" id="Ebene_1" x="0px" y="0px" enable-background="new 0 0 600 720" xml:space="preserve" viewBox="-11.6874 107.994 144.00480000000002 144.0" width="100%" height="100%" data-theme="white" data-piece="g3784_29_"><g id="g3784_29_" transform="translate(-0.31299646,0)" fill="#222222" stroke="#AAAAAA">
	<g id="path3786_29_" fill="#222222" stroke="#AAAAAA">
		<path d="M98.088,164.569c7.993-0.071,9.425-11.458,1.691-13.492    c-7.75-2.029-12.105,8.577-5.178,12.574c-3.872,13.303-8.767,26.053-14.786,38.532c-0.651-16.081-0.014-31.963,1.904-47.947    c7.954-0.972,8.061-12.47,0.128-13.604c-7.923-1.131-11.028,9.935-3.666,13.09c-2.565,15.508-6.265,30.59-11.2,45.51    c-2.917-16.128-4.534-32.23-4.881-48.616c7.73-2.093,6.225-13.476-1.782-13.476c-8.021,0-9.529,11.382-1.789,13.476    c-0.351,16.385-1.972,32.49-4.888,48.616c-4.922-14.92-8.642-30.002-11.201-45.51c7.366-3.156,4.264-14.221-3.666-13.09    c-7.933,1.134-7.824,12.631,0.132,13.604c1.914,15.984,2.548,31.866,1.9,47.947c-6.009-12.479-10.91-25.229-14.782-38.532    c6.924-3.998,2.569-14.604-5.175-12.574c-7.737,2.035-6.305,13.421,1.688,13.492c4.543,19.285,6.816,38.469,6.914,58.29    c20.575,0,41.148,0,61.72,0C91.266,203.038,93.545,183.854,98.088,164.569L98.088,164.569z" fill="#222222" stroke="#AAAAAA" />
		<path d="M91.171,223.73h-61.72c-0.486,0-0.871-0.388-0.878-0.871c-0.094-19.585-2.298-38.391-6.737-57.443    c-4.233-0.354-6.522-3.572-6.921-6.751c-0.411-3.335,1.188-7.248,5.712-8.433c0.723-0.188,1.445-0.29,2.147-0.29    c3.97,0,6.536,2.937,7.318,5.837c0.858,3.217-0.331,6.393-3.041,8.263c3.504,11.943,7.773,23.278,13.006,34.512    c0.416-14.656-0.223-28.946-1.944-43.565c-4.166-0.824-6.073-4.287-6.107-7.488c-0.041-3.372,2.009-7.078,6.64-7.733    c0.418-0.061,0.837-0.092,1.238-0.092c4.257,0,6.802,3.126,7.443,6.231c0.716,3.498-0.813,6.694-3.909,8.328    c2.367,14.157,5.641,27.734,9.965,41.365c2.511-14.761,3.899-29.314,4.253-44.342c-4.01-1.412-5.411-5.101-4.989-8.278    c0.445-3.341,2.984-6.717,7.669-6.717c4.671,0,7.224,3.375,7.667,6.717c0.411,3.177-0.986,6.866-4.993,8.278    c0.345,15.015,1.739,29.563,4.247,44.342c4.331-13.617,7.602-27.201,9.972-41.365c-3.099-1.634-4.625-4.831-3.913-8.328    c0.641-3.105,3.183-6.231,7.443-6.231c0.405,0,0.817,0.031,1.235,0.092c4.639,0.655,6.674,4.361,6.644,7.733    c-0.03,3.201-1.944,6.664-6.106,7.488c-1.728,14.623-2.36,28.916-1.944,43.565c5.229-11.24,9.502-22.576,13.006-34.512    c-2.707-1.87-3.901-5.046-3.041-8.263c0.783-2.9,3.342-5.837,7.321-5.837c0.703,0,1.425,0.102,2.141,0.29    c4.523,1.185,6.126,5.087,5.712,8.433c-0.406,3.18-2.691,6.397-6.91,6.751c-4.446,19.052-6.653,37.857-6.755,57.443    C92.042,223.342,91.644,223.73,91.171,223.73L91.171,223.73z M30.322,221.976h59.972c0.165-19.623,2.437-38.479,6.939-57.605    c0.092-0.402,0.446-0.672,0.848-0.682c3.616-0.03,5.56-2.653,5.884-5.235c0.317-2.589-0.922-5.61-4.416-6.525    c-0.574-0.148-1.147-0.226-1.695-0.226c-3.051,0-5.022,2.275-5.624,4.527c-0.574,2.116-0.128,4.972,2.812,6.663    c0.341,0.203,0.517,0.621,0.409,1.01c-3.916,13.415-8.763,26.07-14.843,38.664c-0.176,0.365-0.571,0.557-0.969,0.49    c-0.398-0.091-0.682-0.429-0.695-0.827c-0.655-16.233-0.041-31.96,1.904-48.103c0.054-0.402,0.364-0.712,0.759-0.767    c3.595-0.432,5.236-3.268,5.256-5.877c0.027-2.603-1.546-5.465-5.131-5.978c-3.817-0.541-6.177,2.116-6.717,4.759    c-0.446,2.178,0.206,5.239,3.51,6.664c0.372,0.148,0.581,0.543,0.52,0.938c-2.585,15.656-6.258,30.59-11.234,45.642    c-0.128,0.378-0.479,0.611-0.891,0.601c-0.402-0.027-0.736-0.324-0.801-0.722c-2.946-16.28-4.547-32.227-4.901-48.747    c-0.003-0.402,0.26-0.76,0.652-0.864c3.49-0.949,4.712-3.98,4.368-6.559c-0.337-2.596-2.302-5.208-5.921-5.208    c-3.625,0-5.59,2.613-5.935,5.205c-0.337,2.582,0.881,5.614,4.368,6.563c0.398,0.104,0.665,0.462,0.648,0.864    c-0.351,16.533-1.955,32.477-4.901,48.747c-0.067,0.398-0.398,0.695-0.793,0.722c-0.385,0.041-0.773-0.223-0.898-0.601    c-4.969-15.062-8.638-29.989-11.224-45.642c-0.067-0.395,0.142-0.79,0.513-0.938c3.308-1.425,3.957-4.486,3.518-6.664    c-0.554-2.643-2.906-5.303-6.718-4.759c-3.585,0.513-5.158,3.375-5.131,5.978c0.021,2.609,1.648,5.445,5.253,5.877    c0.392,0.054,0.708,0.365,0.756,0.767c1.945,16.132,2.566,31.869,1.911,48.103c-0.014,0.398-0.311,0.736-0.702,0.827    c-0.392,0.067-0.793-0.125-0.966-0.49c-6.069-12.59-10.923-25.246-14.836-38.664c-0.118-0.389,0.044-0.807,0.402-1.01    c2.937-1.691,3.372-4.547,2.814-6.663c-0.601-2.252-2.579-4.527-5.624-4.527c-0.55,0-1.127,0.078-1.701,0.226    c-3.498,0.915-4.732,3.936-4.409,6.525c0.324,2.583,2.262,5.205,5.877,5.235c0.409,0.01,0.752,0.28,0.851,0.682    C27.896,183.496,30.167,202.353,30.322,221.976L30.322,221.976z" fill="#222222" stroke="#AAAAAA" />
	</g>
	<g id="line3788_29_" fill="#222222" stroke="#AAAAAA">
		<path fill="#222222" d="M84.305,216.868H36.311c-0.479,0-0.877-0.385-0.877-0.874c0-0.476,0.398-0.878,0.877-0.878h47.995    c0.497,0,0.881,0.402,0.881,0.878C85.187,216.483,84.802,216.868,84.305,216.868L84.305,216.868z" stroke="#AAAAAA" />
	</g>
	<g id="rect3790_29_" fill="#222222" stroke="#AAAAAA">
		<rect x="0.313" y="119.994" fill="none" width="120.004" height="120" />
	</g>
</g></svg>