<?xml version="1.0" encoding="utf-8"?>
<!DOCTYPE svg PUBLIC "-//W3C//DTD SVG 1.1//EN" "http://www.w3.org/Graphics/SVG/1.1/DTD/svg11.dtd">
<svg xmlns="http://www.w3.org/2000/svg" version="1.1" id="Ebene_1" x="0px" y="0px" enable-background="new 0 0 600 720" xml:space="preserve" viewBox="228.31730000000002 108.00059999999999 144.00840000000002 143.99280000000002" width="100%" height="100%" data-theme="dark" data-piece="g3547_57_"><g id="g3547_57_" transform="translate(-0.31299646,0)" fill="#FFFFFF" stroke="#555555">
	<g id="polygon3549_57_" fill="#FFFFFF" stroke="#555555">
		<polygon points="317.467,156.002 317.467,150.861 327.753,150.861 327.753,164.569 320.89,171.428 320.89,202.289     327.753,209.141 327.753,222.859 272.892,222.859 272.892,209.141 279.749,202.289 279.749,171.428 272.892,164.569     272.892,150.861 283.178,150.861 283.178,156.002 293.463,156.002 293.463,150.861 300.323,150.861 307.179,150.861     307.179,156.002   " fill="#FFFFFF" stroke="#555555" />
		<path d="M327.753,223.734h-54.861c-0.476,0-0.88-0.392-0.88-0.875v-13.718c0-0.233,0.094-0.453,0.263-0.618l6.596-6.6V171.79    l-6.596-6.597c-0.169-0.165-0.263-0.384-0.263-0.624v-13.708c0-0.483,0.405-0.888,0.88-0.888h10.286    c0.486,0,0.878,0.405,0.878,0.888v4.27h8.534v-4.27c0-0.483,0.391-0.888,0.874-0.888h13.716c0.485,0,0.878,0.405,0.878,0.888v4.27    h8.533v-4.27c0-0.483,0.392-0.888,0.877-0.888h10.286c0.482,0,0.871,0.405,0.871,0.888v13.708c0,0.24-0.092,0.459-0.261,0.624    l-6.596,6.597v30.134l6.596,6.6c0.169,0.165,0.261,0.384,0.261,0.618v13.718C328.625,223.342,328.236,223.734,327.753,223.734    L327.753,223.734z M273.77,221.976h53.103v-12.474l-6.604-6.599c-0.155-0.159-0.256-0.389-0.256-0.615v-30.86    c0-0.226,0.101-0.449,0.256-0.625l6.604-6.592v-12.483h-8.53v4.274c0,0.482-0.398,0.874-0.875,0.874h-10.288    c-0.486,0-0.878-0.392-0.878-0.874v-4.274h-11.957v4.274c0,0.482-0.405,0.874-0.881,0.874h-10.286    c-0.486,0-0.871-0.392-0.871-0.874v-4.274h-8.537v12.483l6.6,6.592c0.162,0.176,0.256,0.398,0.256,0.625v30.86    c0,0.226-0.094,0.456-0.256,0.615l-6.6,6.599V221.976L273.77,221.976z" fill="#FFFFFF" stroke="#555555" />
	</g>
	<g id="line3551_57_" fill="#FFFFFF" stroke="#555555">
		<path fill="#FFFFFF" d="M324.327,216.875h-48.008c-0.483,0-0.878-0.389-0.878-0.872c0-0.486,0.395-0.884,0.878-0.884h48.008    c0.479,0,0.871,0.398,0.871,0.884C325.198,216.486,324.806,216.875,324.327,216.875L324.327,216.875z" stroke="#555555" />
	</g>
	<g id="rect3553_57_" fill="#FFFFFF" stroke="#555555">
		<rect x="240.318" y="120" fill="none" width="120.007" height="119.994" />
	</g>
</g></svg>